<?xml version="1.0" encoding="UTF-8"?>
<svg width="700pt" height="700pt" version="1.1" viewBox="0 0 700 700" xmlns="http://www.w3.org/2000/svg">
 <path d="m350 128.32c-40.223 0-78.801 15.98-107.24 44.422-28.445 28.445-44.422 67.02-44.422 107.25 0 40.223 15.977 78.801 44.422 107.24 28.441 28.445 67.02 44.422 107.24 44.422 40.227 0 78.805-15.977 107.25-44.422 28.441-28.441 44.422-67.02 44.422-107.24 0-40.227-15.98-78.801-44.422-107.25-28.441-28.441-67.02-44.422-107.25-44.422zm-123.74 27.922c32.82-32.816 77.328-51.254 123.74-51.254s90.926 18.438 123.74 51.254c32.82 32.82 51.258 77.332 51.258 123.75 0 46.414-18.438 90.922-51.258 123.74-32.816 32.82-77.328 51.258-123.74 51.258s-90.922-18.438-123.74-51.258c-32.82-32.82-51.258-77.328-51.258-123.74 0-46.414 18.438-90.926 51.258-123.75zm135.41 117.02v-86.594c0-6.4453-5.2266-11.668-11.668-11.668s-11.668 5.2227-11.668 11.668v93.109c-0.007812 0.45703 0.011719 0.91406 0.058594 1.3672 0.16016 1.6953 0.69141 3.2852 1.5078 4.6914 0.80859 1.4062 1.9219 2.6562 3.3086 3.6484 0.36719 0.26562 0.75391 0.50781 1.1523 0.73047l80.637 46.555c5.5781 3.2227 12.715 1.3086 15.938-4.2695s1.3086-12.715-4.2695-15.938z" fill-rule="evenodd"/>
</svg>
